# AST/ASF file generated using VICON BodyLanguage
# -----------------------------------------------
:version 1.10
:name VICON
:units
  mass 1.0
  length 0.45
  angle deg
:documentation
   .ast/.asf automatically generated from VICON data using
   VICON BodyBuilder and BodyLanguage model FoxedUp or BRILLIANT.MOD
:root
   order TX TY TZ RX RY RZ
   axis XYZ
   position 0 0 0  
   orientation 0 0 0 
:bonedata
  begin
     id 1 
     name lhipjoint
     direction 0.78388 -0.462562 0.414208 
     length 3.01181 
     axis 0 0 0  XYZ
  end
  begin
     id 2 
     name lfemur
     direction 0.34202 -0.939693 0  
     length 6.04673  
     axis 0 0 20  XYZ
    dof rx ry rz
    limits (-160.0 20.0)
           (-70.0 70.0)
           (-60.0 70.0)
  end
  begin
     id 3 
     name ltibia
     direction 0.34202 -0.939693 0   
     length 7.211   
     axis 0 0 20   XYZ
    dof rx
    limits (-10.0 170.0)
  end
  begin
     id 4 
     name lfoot
     direction 0.121887 -0.334882 0.934344   
     length 2.13567   
     axis -90 7.62852e-016 20   XYZ
    dof rx rz
    limits (-45.0 90.0)
           (-70.0 20.0)
  end
  begin
     id 5 
     name ltoes
     direction 1.53555e-011 -4.2179e-011 1   
     length 1.05957   
     axis -90 7.62852e-016 20   XYZ
    dof rx
    limits (-90.0 20.0)
  end
  begin
     id 6 
     name rhipjoint
     direction -0.769387 -0.475875 0.426129   
     length 2.92756  
     axis 0 0 0  XYZ 
  end
  begin
     id 7 
     name rfemur
     direction -0.34202 -0.939693 0   
     length 6.35468   
     axis 0 0 -20   XYZ
    dof rx ry rz
    limits (-160.0 20.0)
           (-70.0 70.0)
           (-70.0 60.0)
  end
  begin
     id 8 
     name rtibia
     direction -0.34202 -0.939693 0   
     length 7.37886   
     axis 0 0 -20   XYZ
    dof rx
    limits (-10.0 170.0)
 end
 begin
     id 9 
     name rfoot
     direction -0.101763 -0.279592 0.954711   
     length 2.21478  
     axis -90 -7.62852e-016 -20   XYZ
    dof rx rz
    limits (-45.0 90.0)
           (-20.0 70.0)
  end
  begin
     id 10 
     name rtoes
     direction -1.53494e-011 -4.21851e-011 1   
     length 1.10506   
     axis -90 -7.62852e-016 -20   XYZ
    dof rx
    limits (-90.0 20.0)
  end
  begin
     id 11 
     name lowerback
     direction 0.00747405 0.999267 0.0375481   
     length 2.13259   
     axis 0 0 0   XYZ
    dof rx ry rz
    limits (-20.0 45.0)
           (-30.0 30.0)
           (-30.0 30.0)
  end
  begin
     id 12 
     name upperback
     direction 0.00661626 0.996177 0.0871029   
     length 2.10528   
     axis 0 0 0   XYZ
    dof rx ry rz
    limits (-20.0 45.0)
           (-30.0 30.0)
           (-30.0 30.0)
  end
  begin
     id 13 
     name thorax
     direction 0.00320659 0.997679 0.0680167   
     length 2.11338   
     axis 0 0 0   XYZ
    dof rx ry rz
    limits (-20.0 45.0)
           (-30.0 30.0)
           (-30.0 30.0)
  end
  begin
     id 14 
     name lowerneck
     direction 0.0374841 0.973033 0.227602   
     length 1.42765   
     axis 0 0 0   XYZ
    dof rx ry rz
    limits (-20.0 45.0)
           (-30.0 30.0)
           (-30.0 30.0)
  end
  begin
     id 15 
     name upperneck
     direction 0.00481585 0.989155 -0.146795   
     length 1.47593   
     axis 0 0 0   XYZ
    dof rx ry rz
    limits (-20.0 45.0)
           (-30.0 30.0)
           (-30.0 30.0)
  end
  begin
     id 16
     name head
     direction -0.00292522 0.997206 -0.0746423  
     length 1.48116  
     axis 0 0 0   XYZ
    dof rx ry rz
    limits (-20.0 45.0)
           (-30.0 30.0)
           (-30.0 30.0)
  end
  begin
     id 17 
     name lclavicle
     direction 0.951444 0.305606 0.0368784  
     length 3.01855  
     axis 0 0 0   XYZ
    dof ry rz
    limits (-20.0 10.0)
           (0.0 20.0)
  end
  begin
     id 18 
     name lhumerus
     direction 1 -4.48977e-011 2.61664e-027   
     length 5.52731   
     axis 180 -30 -90   XYZ
    dof rx ry rz
    limits (-60.0 90.0)
           (-90.0 90.0)
           (-90.0 90.0)
  end
  begin
     id 19
     name lradius
     direction 1 -4.48944e-011 8.22157e-027   
     length 3.11059   
     axis 180 -30 -90   XYZ
    dof rx
    limits (-10.0 170.0)
  end
  begin
     id 20
     name lwrist
     direction 1 -4.48976e-011 1.5779e-026   
     length 1.5553   
     axis -1.15221e-014 90 90   XYZ
    dof ry
    limits (-180.0 0.0)
 end
  begin
     id 21 
     name lhand
     direction 1 -4.49025e-011 3.1558e-026   
     length 0.419626   
     axis -2.01367e-014 90 90   XYZ
    dof rx rz
    limits (-90.0 90.0)
           (-45.0 45.0)
  end
  begin
     id 22 
     name lfingers
     direction 1 -4.4904e-011 6.31161e-026   
     length 0.338313   
     axis -4.02734e-014 90 90   XYZ
    dof rx
    limits (0.0 90.0)
  end
  begin
     id 23
     name lthumb
     direction 0.707107 -6.35004e-011 0.707107   
     length 0.485752   
     axis -90 45 2.85299e-015   XYZ
    dof rx rz
    limits (-45.0 45.0)
           (-45.0 45.0)
  end
  begin
     id 24 
     name rclavicle
     direction -0.968876 0.223791 0.105816   
     length 3.04177  
     axis 0 0 0   XYZ 
    dof ry rz
    limits (-10.0 20.0)
           (-20.0 0.0)
  end
  begin
     id 25 
     name rhumerus
     direction -1 -4.48962e-011 -1.01384e-027  
     length 5.25396   
     axis 180 30 90   XYZ
    dof rx ry rz
    limits (-90.0 60.0)
           (-90.0 90.0)
           (-90.0 90.0)
  end
  begin
     id 26 
     name rradius
     direction -1 -4.48955e-011 8.88542e-027   
     length 3.10567   
     axis 180 30 90   XYZ
    dof rx
    limits (-10.0 170.0)
  end
  begin
     id 27 
     name rwrist
     direction -1 -4.48994e-011 1.5779e-026   
     length 1.55283   
     axis -1.15221e-014 -90 -90   XYZ
    dof ry
    limits (-180.0 0.0)
  end
  begin
     id 28
     name rhand
     direction -1 -4.48891e-011 3.1558e-026   
     length 0.498676   
     axis -2.01367e-014 -90 -90   XYZ
    dof rx rz
    limits (-90.0 90.0)
           (-45.0 45.0)
  end
  begin
     id 29
     name rfingers
     direction -1 -4.48972e-011 6.31161e-026   
     length 0.402045   
     axis -4.02734e-014 -90 -90   XYZ
    dof rx
    limits (0.0 90.0)
  end
  begin
     id 30
     name rthumb
     direction -0.707107 -6.34849e-011 0.707107   
     length 0.577259   
     axis -90 -45 -2.85299e-015   XYZ
    dof rx rz
    limits (-45.0 45.0)
           (-45.0 45.0)
  end
:hierarchy
  begin
    root lhipjoint rhipjoint lowerback
    lhipjoint lfemur
    lfemur ltibia
    ltibia lfoot
    lfoot ltoes
    rhipjoint rfemur
    rfemur rtibia
    rtibia rfoot
    rfoot rtoes
    lowerback upperback
    upperback thorax
    thorax lowerneck lclavicle rclavicle
    lowerneck upperneck
    upperneck head
    lclavicle lhumerus
    lhumerus lradius
    lradius lwrist
    lwrist lhand lthumb
    lhand lfingers
    rclavicle rhumerus
    rhumerus rradius
    rradius rwrist
    rwrist rhand rthumb
    rhand rfingers
  end

#!OML:ASF H:\Pregnant\Project 1\Capture day 1\Session 1\femalepreg.ASF
:FULLY-SPECIFIED
:DEGREES
384
root 5.07958 2.40711 29.9505 49.4262 4.89257 276.028
lowerback -5.69653 3.88529 -5.00996
upperback -3.12457 5.42999 0.538843
thorax -0.563843 2.80637 3.60372
lowerneck -17.8742 2.86363 -4.12547
upperneck 32.6371 -3.34368 27.0058
head 15.2137 1.12264 12.16
rclavicle 3.18055e-014 -4.96962e-015
rhumerus -26.1927 74.1318 -103.145
rradius 87.3508
rwrist -1.01547
rhand -55.1731 -76.9561
rfingers 7.12502
rthumb -27.5457 104.961
lclavicle 3.18055e-014 -4.96962e-015
lhumerus 68.6465 -51.5348 40.4716
lradius 38.8772
lwrist 50.852
lhand -5.42994 9.77731
lfingers 7.12502
lthumb 20.3803 38.7279
rfemur -47.7445 7.00053 26.1711
rtibia 107.55
rfoot 34.0629 10.0046
rtoes 21.7548
lfemur -51.8514 -12.3369 -36.8359
ltibia 135.475
lfoot -9.74435 -18.0126
ltoes -69.6954
385
root 5.06213 2.40594 29.9623 49.4525 5.27467 276.384
lowerback -5.60734 3.81748 -4.98167
upperback -3.17951 5.33217 0.525606
thorax -0.656444 2.76035 3.56163
lowerneck -17.8254 2.82703 -4.19487
upperneck 32.5243 -3.44845 27.3244
head 15.1954 1.09276 12.3089
rclavicle -2.22639e-014 1.19271e-014
rhumerus -26.9241 74.0653 -103.692
rradius 87.5545
rwrist -0.730725
rhand -54.9618 -76.8165
rfingers 7.12502
rthumb -27.3436 104.853
lclavicle -2.22639e-014 1.19271e-014
lhumerus 69.2033 -51.7277 39.8931
lradius 38.9325
lwrist 51.1435
lhand -5.50579 9.78149
lfingers 7.12502
lthumb 20.3074 38.7398
rfemur -47.8073 6.59609 26.352
rtibia 107.296
rfoot 34.1818 10.2249
rtoes 21.7119
lfemur -51.7229 -13.1421 -37.0142
ltibia 135.409
lfoot -9.55324 -18.1033
ltoes -69.7356
386
root 5.04491 2.40438 29.9734 49.5008 5.6616 276.729
lowerback -5.52121 3.75262 -4.94236
upperback -3.24059 5.23806 0.51863
thorax -0.753797 2.71638 3.52022
lowerneck -17.7745 2.78861 -4.26952
upperneck 32.4043 -3.55617 27.6557
head 15.1757 1.06116 12.465
rclavicle -6.67916e-014 -1.76918e-014
rhumerus -27.6496 74.0051 -104.225
rradius 87.7644
rwrist -0.448808
rhand -54.7578 -76.664
rfingers 7.12502
rthumb -27.1485 104.731
lclavicle -6.67916e-014 -1.76918e-014
lhumerus 69.7397 -51.9157 39.3513
lradius 38.9968
lwrist 51.4091
lhand -5.56029 9.78294
lfingers 7.12502
lthumb 20.255 38.7468
rfemur -47.8942 6.1313 26.5487
rtibia 107.024
rfoot 34.2772 10.4475
rtoes 21.7136
lfemur -51.6168 -13.9597 -37.1974
ltibia 135.374
lfoot -9.33406 -18.162
ltoes -69.774
387
root 5.02784 2.40243 29.9837 49.5647 6.05017 277.06
lowerback -5.43451 3.69236 -4.89255
upperback -3.30533 5.14981 0.519547
thorax -0.855757 2.67549 3.48135
lowerneck -17.7218 2.74847 -4.34842
upperneck 32.277 -3.66612 27.997
head 15.1545 1.028 12.6267
rclavicle 9.22361e-014 -4.73108e-014
rhumerus -28.3684 73.9509 -104.742
rradius 87.9812
rwrist -0.170816
rhand -54.5624 -76.495
rfingers 7.12502
rthumb -26.9615 104.591
lclavicle 9.22361e-014 -4.73108e-014
lhumerus 70.2287 -52.1048 38.8763
lradius 39.0758
lwrist 51.6237
lhand -5.59429 9.78334
lfingers 7.12502
lthumb 20.2223 38.7507
rfemur -47.9984 5.61832 26.7631
rtibia 106.733
rfoot 34.3447 10.6701
rtoes 21.7571
lfemur -51.5282 -14.7778 -37.3733
ltibia 135.351
lfoot -9.11161 -18.2111
ltoes -69.8114
388
root 5.01103 2.40006 29.9934 49.6352 6.43498 277.373
lowerback -5.34141 3.63926 -4.83398
upperback -3.37054 5.07082 0.529584
thorax -0.962863 2.63935 3.44702
lowerneck -17.6678 2.70651 -4.42968
upperneck 32.1436 -3.77778 28.3431
head 15.132 0.993298 12.7912
rclavicle -4.13472e-014 -1.80894e-014
rhumerus -29.0815 73.9011 -105.241
rradius 88.2056
rwrist 0.103569
rhand -54.3766 -76.3092
rfingers 7.12502
rthumb -26.7837 104.433
lclavicle -4.13472e-014 -1.80894e-014
lhumerus 70.6562 -52.2989 38.4838
lradius 39.1743
lwrist 51.7732
lhand -5.61047 9.78515
lfingers 7.12502
lthumb 20.2068 38.7542
rfemur -48.1094 5.07132 26.9949
rtibia 106.421
rfoot 34.3831 10.8928
rtoes 21.8331
lfemur -51.4448 -15.5816 -37.541
ltibia 135.336
lfoot -8.89107 -18.2509
ltoes -69.8478
389
root 4.99457 2.39728 30.0026 49.7021 6.80967 277.665
lowerback -5.23492 3.59631 -4.76828
upperback -3.43356 5.00492 0.548708
thorax -1.07672 2.60988 3.41775
lowerneck -17.6127 2.66265 -4.51041
upperneck 32.0054 -3.89107 28.6889
head 15.1087 0.957013 12.9556
rclavicle -6.36111e-015 -7.95139e-015
rhumerus -29.7924 73.8529 -105.726
rradius 88.4377
rwrist 0.376738
rhand -54.2 -76.1097
rfingers 7.12502
rthumb -26.6148 104.259
lclavicle -6.36111e-015 -7.95139e-015
lhumerus 71.0226 -52.4988 38.1734
lradius 39.2936
lwrist 51.8551
lhand -5.61225 9.79047
lfingers 7.12502
lthumb 20.2051 38.7596
rfemur -48.2162 4.50488 27.2421
rtibia 106.088
rfoot 34.3936 11.1161
rtoes 21.9287
lfemur -51.3536 -16.3551 -37.7007
ltibia 135.323
lfoot -8.67786 -18.2819
ltoes -69.8833
390
root 4.97854 2.39411 30.0113 49.7586 7.16804 277.936
lowerback -5.10967 3.56613 -4.69603
upperback -3.49323 4.95545 0.574754
thorax -1.19924 2.58873 3.39136
lowerneck -17.5564 2.61703 -4.58733
upperneck 31.8637 -4.00646 29.0322
head 15.0852 0.919129 13.1181
rclavicle -9.54166e-014 3.33958e-014
rhumerus -30.504 73.8023 -106.199
rradius 88.6774
rwrist 0.650629
rhand -54.0321 -75.9021
rfingers 7.12502
rthumb -26.454 104.076
lclavicle -9.54166e-014 3.33958e-014
lhumerus 71.3427 -52.7021 37.9263
lradius 39.4329
lwrist 51.8787
lhand -5.60458 9.80074
lfingers 7.12502
lthumb 20.2124 38.7691
rfemur -48.3126 3.93238 27.5014
rtibia 105.734
rfoot 34.3782 11.3424
rtoes 22.0237
lfemur -51.2464 -17.0855 -37.8541
ltibia 135.307
lfoot -8.47602 -18.3049
ltoes -69.9179
391
root 4.96298 2.39056 30.0195 49.8018 7.50527 278.183
lowerback -4.96252 3.55055 -4.61659
upperback -3.54981 4.92472 0.604268
thorax -1.33229 2.577 3.36368
lowerneck -17.4885 2.57113 -4.63653
upperneck 31.712 -4.11816 29.3379
head 15.0514 0.882323 13.2514
rclavicle -6.36111e-014 1.68967e-014
rhumerus -31.2167 73.7446 -106.666
rradius 88.9239
rwrist 0.927356
rhand -53.8721 -75.6932
rfingers 7.12502
rthumb -26.3008 103.89
lclavicle -6.36111e-014 1.68967e-014
lhumerus 71.637 -52.9049 37.7157
lradius 39.591
lwrist 51.8575
lhand -5.59183 9.81756
lfingers 7.12502
lthumb 20.2247 38.7847
rfemur -48.3977 3.36509 27.7684
rtibia 105.361
rfoot 34.3404 11.5742
rtoes 22.0949
lfemur -51.1209 -17.7651 -38.003
ltibia 135.287
lfoot -8.28768 -18.3207
ltoes -69.9515
392
root 4.9479 2.3867 30.0272 49.8323 7.81785 278.407
lowerback -4.79273 3.55051 -4.52898
upperback -3.60471 4.91394 0.633315
thorax -1.47734 2.57523 3.32994
lowerneck -17.3932 2.52727 -4.62392
upperneck 31.5401 -4.21709 29.555
head 14.9912 0.850861 13.3157
rclavicle -2.22639e-014 -4.57205e-015
rhumerus -31.9287 73.676 -107.129
rradius 89.1761
rwrist 1.20741
rhand -53.7201 -75.4893
rfingers 7.12502
rthumb -26.1553 103.708
lclavicle -2.22639e-014 -4.57205e-015
lhumerus 71.9256 -53.103 37.5141
lradius 39.7666
lwrist 51.8053
lhand -5.57907 9.84064
lfingers 7.12502
lthumb 20.237 38.8064
rfemur -48.4748 2.81185 28.0389
rtibia 104.973
rfoot 34.2843 11.8129
rtoes 22.119
lfemur -50.9799 -18.3915 -38.1496
ltibia 135.262
lfoot -8.11288 -18.3305
ltoes -69.9843
393
root 4.93328 2.3826 30.0343 49.8526 8.10384 278.61
lowerback -4.60113 3.56626 -4.43226
upperback -3.65971 4.92349 0.658374
thorax -1.63541 2.58352 3.28584
lowerneck -17.2499 2.48829 -4.50411
upperneck 31.3361 -4.29078 29.6127
head 14.8843 0.830245 13.2565
rclavicle -5.08889e-014 1.43125e-014
rhumerus -32.635 73.5933 -107.588
rradius 89.4324
rwrist 1.48996
rhand -53.5761 -75.2935
rfingers 7.12502
rthumb -26.0175 103.532
lclavicle -5.08889e-014 1.43125e-014
lhumerus 72.2199 -53.2937 37.304
lradius 39.9603
lwrist 51.7297
lhand -5.57028 9.86863
lfingers 7.12502
lthumb 20.2454 38.8335
rfemur -48.549 2.27885 28.3087
rtibia 104.575
rfoot 34.2154 12.0575
rtoes 22.0822
lfemur -50.8285 -18.9665 -38.2957
ltibia 135.234
lfoot -7.95048 -18.335
ltoes -70.0161
394
root 4.91911 2.37832 30.0407 49.8657 8.36233 278.792
lowerback -4.38885 3.59793 -4.3258
upperback -3.71626 4.95362 0.676791
thorax -1.80699 2.60193 3.22815
lowerneck -17.0402 2.45651 -4.23418
upperneck 31.0898 -4.32735 29.4436
head 14.713 0.824855 13.026
rclavicle -3.81667e-014 2.78299e-014
rhumerus -33.3286 73.4935 -108.039
rradius 89.6911
rwrist 1.77359
rhand -53.4414 -75.1064
rfingers 7.12502
rthumb -25.8885 103.364
lclavicle -3.81667e-014 2.78299e-014
lhumerus 72.5241 -53.4763 37.0776
lradius 40.1735
lwrist 51.6333
lhand -5.56756 9.89917
lfingers 7.12502
lthumb 20.248 38.8638
rfemur -48.6249 1.76996 28.5741
rtibia 104.17
rfoot 34.1413 12.3037
rtoes 21.9861
lfemur -50.6715 -19.4937 -38.4434
ltibia 135.202
lfoot -7.79872 -18.3351
ltoes -70.0469
395
root 4.9054 2.37391 30.0464 49.8731 8.5928 278.957
lowerback -4.15663 3.64587 -4.20998
upperback -3.77529 5.00496 0.686955
thorax -1.99253 2.63069 3.15523
lowerneck -16.7571 2.43245 -3.79112
upperneck 30.7996 -4.32119 29.0137
head 14.4741 0.834889 12.6077
rclavicle -5.40694e-014 -3.57812e-015
rhumerus -34.0018 73.374 -108.477
rradius 89.9501
rwrist 2.05619
rhand -53.3166 -74.9243
rfingers 7.12502
rthumb -25.769 103.199
lclavicle -5.40694e-014 -3.57812e-015
lhumerus 72.8339 -53.6534 36.8386
lradius 40.408
lwrist 51.5129
lhand -5.57221 9.92755
lfingers 7.12502
lthumb 20.2435 38.8927
rfemur -48.7044 1.28696 28.8316
rtibia 103.763
rfoot 34.0723 12.5423
rtoes 21.8566
lfemur -50.5112 -19.9772 -38.5952
ltibia 135.167
lfoot -7.65575 -18.3312
ltoes -70.0768
396
root 4.89215 2.36944 30.0514 49.8753 8.7948 279.107
lowerback -3.90484 3.71045 -4.08666
upperback -3.83706 5.07819 0.688762
thorax -2.19215 2.6701 3.06776
lowerneck -16.4118 2.41406 -3.1875
upperneck 30.4766 -4.27712 28.3455
head 14.1838 0.855258 12.0326
rclavicle -2.03555e-013 -1.19271e-014
rhumerus -34.6488 73.2326 -108.896
rradius 90.2076
rwrist 2.33616
rhand -53.2034 -74.7416
rfingers 7.12502
rthumb -25.6606 103.032
lclavicle -2.03555e-013 -1.19271e-014
lhumerus 73.1406 -53.8275 36.5979
lradius 40.6662
lwrist 51.365
lhand -5.58291 9.94976
lfingers 7.12502
lthumb 20.2333 38.916
rfemur -48.7874 0.82973 29.0771
rtibia 103.356
rfoot 34.0209 12.7615
rtoes 21.7408
lfemur -50.3483 -20.4205 -38.7538
ltibia 135.128
lfoot -7.51988 -18.3239
ltoes -70.1057
